<svg viewBox="0 0 36 36" version="1.1" xmlns="http://www.w3.org/2000/svg">
    <path d="M19.412,6.684c-0.781,-0.78 -2.048,-0.78 -2.829,0c-0.78,0.781 -0.78,2.048 0,2.829l4.243,4.242c0.781,0.781 2.048,0.781 2.828,0c0.781,-0.78 0.781,-2.048 0,-2.828l-4.242,-4.243Z" fill="#68abdf"/>
    <path d="M14.465,1.735c-0.781,-0.78 -2.048,-0.78 -2.829,0c-0.78,0.781 -0.78,2.048 0,2.829c0.781,0.78 2.048,0.78 2.829,-0c0.78,-0.781 0.78,-2.048 -0,-2.829Z" fill="#99c47a"/>
    <path d="M6.678,3.854c-0.781,-0.781 -2.048,-0.781 -2.829,-0c-0.78,0.78 -0.78,2.048 0,2.828l6.364,6.364c0.781,0.781 2.048,0.781 2.829,0c0.78,-0.78 0.78,-2.048 -0,-2.828l-6.364,-6.364Z" fill="#ffc66d"/>
    <path d="M5.272,12.344c-0.78,-0.781 -2.048,-0.781 -2.828,-0c-0.781,0.78 -0.781,2.047 -0,2.828l8.485,8.485c0.781,0.781 2.048,0.781 2.829,0c0.78,-0.78 0.78,-2.048 -0,-2.828l-8.486,-8.485Z" fill="#ff6470"/>
    <path class="a" d="M17.991,15.167c-0.781,-0.78 -2.048,-0.78 -2.828,0c-0.781,0.781 -0.781,2.048 -0,2.829l5.656,5.657c0.781,0.78 2.048,0.78 2.829,-0c0.78,-0.781 0.78,-2.048 -0,-2.829l-5.657,-5.657Z" fill="#404040"/>
    <path class="a" d="M13.842,26.413c-0.983,0.501 -1.375,1.707 -0.874,2.69c0.501,0.984 1.707,1.376 2.69,0.874l7.128,-3.632c0.984,-0.501 1.375,-1.706 0.874,-2.69c-0.501,-0.983 -1.706,-1.375 -2.69,-0.874l-7.128,3.632Z" fill="#404040"/>
    <path class="a" d="M23.241,33.849c0.173,1.09 1.198,1.835 2.288,1.662c1.091,-0.173 1.836,-1.198 1.663,-2.288l-1.252,-7.902c-0.172,-1.09 -1.198,-1.835 -2.288,-1.662c-1.09,0.172 -1.835,1.198 -1.662,2.288l1.251,7.902Z" fill="#404040"/>
    <path class="a" d="M33.219,27.196c1.09,0.173 2.115,-0.572 2.288,-1.662c0.173,-1.091 -0.572,-2.116 -1.663,-2.289l-7.901,-1.251c-1.09,-0.173 -2.116,0.572 -2.288,1.662c-0.173,1.091 0.572,2.116 1.662,2.289l7.902,1.251Z" fill="#404040"/>
    <path class="a" d="M29.982,15.655c0.501,-0.984 0.11,-2.189 -0.874,-2.69c-0.983,-0.502 -2.189,-0.11 -2.69,0.874l-3.632,7.128c-0.501,0.983 -0.109,2.188 0.874,2.69c0.984,0.501 2.189,0.109 2.69,-0.874l3.632,-7.128Z" fill="#404040"/>
    <style>@media (prefers-color-scheme:dark){.a{fill:#f2f2f2}}</style>
</svg>
